<svg xmlns="http://www.w3.org/2000/svg" width="900" height="600" viewBox="0 0 900 600" fill="none">
  <defs>
    <linearGradient id="bg" x1="80" y1="40" x2="820" y2="560" gradientUnits="userSpaceOnUse">
      <stop stop-color="#101828"/>
      <stop offset="0.55" stop-color="#0D1526"/>
      <stop offset="1" stop-color="#0A1020"/>
    </linearGradient>
    <radialGradient id="bloom" cx="0" cy="0" r="1" gradientUnits="userSpaceOnUse" gradientTransform="translate(668 110) rotate(134.373) scale(367.312 272.383)">
      <stop stop-color="#4F46E5" stop-opacity="0.28"/>
      <stop offset="1" stop-color="#4F46E5" stop-opacity="0"/>
    </radialGradient>
    <linearGradient id="editorHero" x1="286" y1="208" x2="584" y2="362" gradientUnits="userSpaceOnUse">
      <stop stop-color="#312E81"/>
      <stop offset="1" stop-color="#1D4ED8"/>
    </linearGradient>
  </defs>

  <rect width="900" height="600" rx="32" fill="url(#bg)"/>
  <rect width="900" height="600" rx="32" fill="url(#bloom)"/>
  <circle cx="176" cy="500" r="180" fill="#0891B2" fill-opacity="0.10"/>

  <rect x="56" y="56" width="788" height="488" rx="30" fill="#0B1220" stroke="#FFFFFF" stroke-opacity="0.10" stroke-width="2"/>
  <rect x="56" y="56" width="788" height="44" rx="30" fill="#121A2B"/>
  <circle cx="88" cy="78" r="5.5" fill="#FB7185"/>
  <circle cx="108" cy="78" r="5.5" fill="#FBBF24"/>
  <circle cx="128" cy="78" r="5.5" fill="#34D399"/>
  <rect x="158" y="67" width="246" height="22" rx="11" fill="#FFFFFF" fill-opacity="0.07"/>
  <text x="176" y="82" fill="#94A3B8" font-family="Arial, sans-serif" font-size="11">phoenix.app/studio/editor/the-future-of-ai-content</text>

  <rect x="76" y="118" width="154" height="404" rx="20" fill="#10192C" stroke="#FFFFFF" stroke-opacity="0.05"/>
  <text x="98" y="154" fill="#F8FAFC" font-family="Arial, sans-serif" font-size="18" font-weight="700">Phoenix</text>
  <text x="98" y="174" fill="#64748B" font-family="Arial, sans-serif" font-size="11">Content studio</text>
  <rect x="98" y="198" width="88" height="28" rx="14" fill="#4338CA" fill-opacity="0.28"/>
  <text x="125" y="216" fill="#E0E7FF" font-family="Arial, sans-serif" font-size="11" font-weight="700">Editor</text>
  <rect x="98" y="250" width="96" height="10" rx="5" fill="#FFFFFF" fill-opacity="0.12"/>
  <rect x="98" y="276" width="82" height="10" rx="5" fill="#FFFFFF" fill-opacity="0.08"/>
  <rect x="98" y="302" width="106" height="10" rx="5" fill="#FFFFFF" fill-opacity="0.08"/>
  <rect x="98" y="328" width="74" height="10" rx="5" fill="#FFFFFF" fill-opacity="0.08"/>
  <rect x="98" y="354" width="90" height="10" rx="5" fill="#FFFFFF" fill-opacity="0.08"/>
  <rect x="98" y="398" width="110" height="82" rx="18" fill="#1E293B"/>
  <text x="116" y="426" fill="#94A3B8" font-family="Arial, sans-serif" font-size="11">Queued posts</text>
  <text x="116" y="460" fill="#F8FAFC" font-family="Arial, sans-serif" font-size="28" font-weight="700">12</text>

  <rect x="248" y="118" width="414" height="404" rx="20" fill="#0F172A" stroke="#FFFFFF" stroke-opacity="0.05"/>
  <text x="276" y="152" fill="#93C5FD" font-family="Arial, sans-serif" font-size="11" font-weight="700" letter-spacing="1.6">ARTICLE EDITOR</text>
  <text x="276" y="190" fill="#F8FAFC" font-family="Arial, sans-serif" font-size="30" font-weight="700">How AI products earn trust</text>
  <text x="276" y="214" fill="#94A3B8" font-family="Arial, sans-serif" font-size="13">Draft, summarize, schedule, publish</text>

  <rect x="276" y="238" width="358" height="104" rx="20" fill="url(#editorHero)"/>
  <rect x="300" y="262" width="118" height="12" rx="6" fill="#FFFFFF" fill-opacity="0.72"/>
  <rect x="300" y="284" width="258" height="10" rx="5" fill="#FFFFFF" fill-opacity="0.22"/>
  <rect x="300" y="304" width="236" height="10" rx="5" fill="#FFFFFF" fill-opacity="0.22"/>
  <rect x="554" y="258" width="54" height="54" rx="14" fill="#FFFFFF" fill-opacity="0.14"/>
  <path d="M569 276H593" stroke="#E0E7FF" stroke-width="4" stroke-linecap="round"/>
  <path d="M569 290H597" stroke="#E0E7FF" stroke-width="4" stroke-linecap="round"/>
  <path d="M569 304H589" stroke="#E0E7FF" stroke-width="4" stroke-linecap="round"/>

  <rect x="276" y="362" width="358" height="132" rx="20" fill="#121C31"/>
  <rect x="300" y="388" width="204" height="10" rx="5" fill="#FFFFFF" fill-opacity="0.12"/>
  <rect x="300" y="410" width="288" height="10" rx="5" fill="#FFFFFF" fill-opacity="0.08"/>
  <rect x="300" y="432" width="272" height="10" rx="5" fill="#FFFFFF" fill-opacity="0.08"/>
  <rect x="300" y="454" width="236" height="10" rx="5" fill="#FFFFFF" fill-opacity="0.08"/>
  <rect x="534" y="386" width="76" height="84" rx="16" fill="#0F172A" stroke="#FFFFFF" stroke-opacity="0.05"/>
  <text x="548" y="408" fill="#94A3B8" font-family="Arial, sans-serif" font-size="10">AI summary</text>
  <rect x="548" y="422" width="46" height="8" rx="4" fill="#FFFFFF" fill-opacity="0.14"/>
  <rect x="548" y="438" width="36" height="8" rx="4" fill="#FFFFFF" fill-opacity="0.10"/>
  <rect x="548" y="454" width="42" height="8" rx="4" fill="#FFFFFF" fill-opacity="0.10"/>

  <rect x="680" y="118" width="144" height="404" rx="20" fill="#10192C" stroke="#FFFFFF" stroke-opacity="0.05"/>
  <text x="702" y="152" fill="#94A3B8" font-family="Arial, sans-serif" font-size="11">Publish settings</text>
  <rect x="702" y="172" width="86" height="30" rx="15" fill="#22C55E" fill-opacity="0.16" stroke="#4ADE80" stroke-opacity="0.25"/>
  <text x="729" y="191" fill="#DCFCE7" font-family="Arial, sans-serif" font-size="11" font-weight="700">Ready</text>
  <text x="702" y="236" fill="#94A3B8" font-family="Arial, sans-serif" font-size="11">Visibility</text>
  <rect x="702" y="248" width="96" height="34" rx="12" fill="#FFFFFF" fill-opacity="0.04"/>
  <text x="722" y="269" fill="#F8FAFC" font-family="Arial, sans-serif" font-size="12">Public</text>
  <text x="702" y="320" fill="#94A3B8" font-family="Arial, sans-serif" font-size="11">Scheduled</text>
  <rect x="702" y="332" width="96" height="60" rx="14" fill="#FFFFFF" fill-opacity="0.04"/>
  <text x="720" y="358" fill="#F8FAFC" font-family="Arial, sans-serif" font-size="18" font-weight="700">09:30</text>
  <text x="720" y="376" fill="#64748B" font-family="Arial, sans-serif" font-size="11">Tomorrow</text>
  <text x="702" y="430" fill="#94A3B8" font-family="Arial, sans-serif" font-size="11">Channels</text>
  <rect x="702" y="444" width="50" height="22" rx="11" fill="#3B82F6" fill-opacity="0.18"/>
  <text x="718" y="459" fill="#DBEAFE" font-family="Arial, sans-serif" font-size="10">Web</text>
  <rect x="758" y="444" width="44" height="22" rx="11" fill="#8B5CF6" fill-opacity="0.16"/>
  <text x="771" y="459" fill="#EDE9FE" font-family="Arial, sans-serif" font-size="10">App</text>
</svg>